<svg xmlns="http://www.w3.org/2000/svg" width="400" height="400" viewBox="0 0 400 400"><path style="color:#000;font-style:normal;font-variant:normal;font-weight:400;font-stretch:normal;font-size:medium;line-height:normal;font-family:sans-serif;text-indent:0;text-align:start;text-decoration:none;text-decoration-line:none;text-decoration-style:solid;text-decoration-color:#000;letter-spacing:normal;word-spacing:normal;text-transform:none;direction:ltr;block-progression:tb;writing-mode:lr-tb;baseline-shift:baseline;text-anchor:start;white-space:normal;clip-rule:nonzero;display:inline;overflow:visible;visibility:visible;opacity:1;isolation:auto;mix-blend-mode:normal;color-interpolation:sRGB;color-interpolation-filters:linearRGB;solid-color:#000;solid-opacity:1;fill:#000;fill-opacity:1;fill-rule:nonzero;stroke:none;stroke-width:25;stroke-linecap:butt;stroke-linejoin:miter;stroke-miterlimit:4;stroke-dasharray:none;stroke-dashoffset:0;stroke-opacity:1;color-rendering:auto;image-rendering:auto;shape-rendering:auto;text-rendering:auto" d="M289.176.738 54.38 235.533 1.1 399.262l164.093-55.092 22.344-22.344c-9.854-1.943-28.786-5.925-29.318-6.037l-.36.36-73.556-75.182L289.176 36.094l74.369 74.369-47.367 47.367 4.017 31.338 78.705-78.705zm-7.344 162.455c-11.056 0-12.454.086-13.885.854-2.805 1.504-3.094 2.68-4.2 16.984-.553 7.136-1.195 13.207-1.427 13.49-.231.284-2.138.999-4.238 1.586-6.034 1.69-11.7 3.967-17.885 7.192-3.149 1.642-5.978 2.986-6.287 2.986s-4.614-3.46-9.566-7.691c-11.12-9.5-11.433-9.74-13.295-10.135-2.669-.566-4.892 1.023-13.416 9.598-8.369 8.418-9.713 10.333-9.143 13.025.384 1.81.683 2.203 10.121 13.225 4.232 4.942 7.694 9.245 7.694 9.564s-1.343 3.156-2.985 6.305c-3.225 6.185-5.504 11.85-7.193 17.885-.588 2.1-1.3 4.008-1.584 4.24-.284.231-6.355.872-13.49 1.424-14.304 1.106-15.482 1.398-16.987 4.203-.767 1.43-.853 2.828-.853 13.885 0 11.056.086 12.453.853 13.884 1.5 2.798 2.7 3.096 16.754 4.176 7.009.539 13.059 1.073 13.446 1.188.434.128 1.126 1.756 1.81 4.263 1.666 6.106 3.929 11.764 7.244 18.123 1.642 3.15 2.985 5.988 2.985 6.307 0 .32-3.306 4.441-7.346 9.16-11.655 13.613-11.606 13.531-9.838 17.184 1.398 2.888 16.85 18.068 19.154 18.818 2.935.955 4.306.124 15.272-9.258l10.195-8.72 5.627 2.957c6.769 3.557 13.622 6.326 19.002 7.675 2.67.67 4.048 1.245 4.201 1.754.126.417.667 6.492 1.203 13.5 1.077 14.055 1.375 15.254 4.172 16.754 1.431.768 2.829.854 13.885.854s12.454-.086 13.885-.854c2.797-1.5 3.095-2.699 4.172-16.754.536-7.008 1.077-13.073 1.199-13.478.147-.489 1.819-1.166 4.963-2.008 5.869-1.573 11.067-3.688 17.828-7.252 2.865-1.51 5.486-2.746 5.824-2.746s4.665 3.462 9.617 7.693 9.691 8.224 10.532 8.875c2.17 1.68 4.917 1.675 7.357-.015 3.11-2.155 16.76-16.271 17.541-18.14 1.328-3.178.84-4.036-8.637-15.153-4.814-5.649-8.754-10.554-8.754-10.9 0-.348 1.236-2.975 2.746-5.84 3.565-6.761 5.68-11.96 7.252-17.829.843-3.144 1.52-4.817 2.008-4.965.406-.122 6.47-.66 13.479-1.197 14.055-1.076 15.254-1.375 16.754-4.172.767-1.43.853-2.828.853-13.885 0-11.056-.086-12.453-.853-13.884-1.506-2.807-2.68-3.097-16.985-4.196-8.608-.66-13.18-1.193-13.584-1.582-.334-.322-1.013-2.166-1.508-4.097-1.35-5.274-3.846-11.492-7.175-17.877-1.642-3.15-2.987-5.998-2.987-6.33 0-.333 3.835-5.082 8.52-10.555 9.175-10.717 10.012-12.107 9.058-15.037-.745-2.29-15.93-17.755-18.796-19.143-3.443-1.666-4.086-1.318-15.532 8.418-5.66 4.816-10.545 8.756-10.853 8.756-.309 0-3.147-1.35-6.309-3-6.188-3.23-13.41-6.1-18.795-7.47-2.059-.525-3.442-1.131-3.57-1.565-.115-.39-.649-6.44-1.187-13.45-1.08-14.054-1.38-15.253-4.178-16.753-1.431-.768-2.829-.854-13.885-.854m1.18 66.813c11.052.227 22.032 3.994 31.21 11.338 16.129 12.904 22.88 33.666 17.628 54.209-1.339 5.234-5.818 14.003-9.502 18.6-8.372 10.442-20.257 17.15-33.797 19.076-2.965.42-10.137.565-11.815.236-.382-.075-2.258-.39-4.17-.701-6.486-1.055-13.788-4.012-19.693-7.977-16.159-10.85-25.15-30.748-22.457-49.693 1.77-12.45 8.207-24.493 17.25-32.276 10.2-8.78 22.82-13.07 35.346-12.812m-212.12 35.637 62.788 62.787-60.014 20.28-22.451-22.448z"/></svg>