<svg xmlns="http://www.w3.org/2000/svg" width="300" viewBox="0 0 375 375" height="250" version="1.0">
  <defs>
    <clipPath id="a">
      <path d="M37.5 152.316H81v70.5H37.5Zm0 0"/>
    </clipPath>
    <clipPath id="b">
      <path d="M89 152.316h74v70.5H89Zm0 0"/>
    </clipPath>
    <clipPath id="c">
      <path d="M160 152.316h72v70.5h-72Zm0 0"/>
    </clipPath>
    <clipPath id="d">
      <path d="M223 152.316h63v70.5h-63Zm0 0"/>
    </clipPath>
    <clipPath id="e">
      <path d="M279 152.316h58.5v70.5H279Zm0 0"/>
    </clipPath>
  </defs>
  <path fill="#60c9ae" d="M84.629 155.031c3.25-1.074 7.012.508 8.598 3.52 1.828 3.027.78 7.207-2.004 9.27-2.297 1.687-5.602 1.968-8.055.452-2.93-1.628-4.352-5.488-3.207-8.636.672-2.196 2.504-3.914 4.668-4.606m61.578-.008c4.606-1.496 9.813 1.91 10.43 6.68.515 3.719-1.867 7.719-5.524 8.777-3.906 1.434-8.61-.804-10.039-4.703-1.789-4.199.707-9.55 5.133-10.754m57.273.93c2.958-.758 6.477-.07 8.41 2.457 3.282 3.727 2.114 10.328-2.437 12.492-4.766 2.727-11.488-.937-11.789-6.402-.566-3.793 2.106-7.68 5.816-8.547m0 0"/>
  <path fill="#11221c" d="M40.934 155.004h-.582l-.004.586q-.007.686-.008 1.37v.005l-.008 1.367-.004.586.582.008c4.45.05 8.899.039 13.344.023.695 0 1.387-.004 2.082-.004.023 9.817.02 19.637.016 29.453-.004 7.75-.008 15.504.003 23.258-.058 3.883 3.235 7.41 7.125 7.574 1.856.07 3.743.055 5.614.043 1.32-.011 2.633-.02 3.918 0l.593.008.004-.594c.07-14.18.063-28.359.051-42.539q-.013-10.277-.008-20.554v-.59h-.59c-10.707.027-21.417.023-32.128 0m0 0"/>
  <g clip-path="url(#a)">
    <path transform="matrix(2.34531 0 0 2.35 38.573 152.318)" fill="none" d="M1.007 1.143H.758l-.001.25q-.003.29-.004.583v.001q0 .293-.003.582l-.001.25.248.003c1.897.021 3.794.016 5.69.01l.887-.002c.01 4.177.008 8.356.007 12.533q-.005 4.948.001 9.897c-.025 1.653 1.38 3.154 3.038 3.223.791.03 1.596.024 2.394.019a70 70 0 0 1 1.67 0l.253.003.002-.253c.03-6.034.027-12.068.022-18.101q-.006-4.374-.004-8.747v-.251h-.251q-6.848.016-13.7 0Zm0 0" stroke="#11221c" stroke-width=".5"/>
  </g>
  <path fill="#11221c" d="m99.922 154.992-.602-.015v.601q-.005 9.521-.004 19.035c0 6.344 0 12.692-.007 19.035v.016c.164 6.129 1.804 12.492 5.843 17.344 5.637 6.851 14.852 9.406 23.301 9.203h.012c6.336-.277 13.496-1.512 18.543-5.027l.02-.016c1.238-.95 2.695-2.188 3.847-3.652 1.148-1.461 2.031-3.203 2.031-5.149v-1.418l-1 1.004-.008.008-.007.004-.004.008-.016.015-.008.004-.004.008-.007.008-.008.004-.004.008-.067.066-.007.004-.004.008-.063.062-.008.004-.004.008-.093.094-.008.004-.004.007-.3.301-.005.008-.007.004-.02.02-.004.007-.008.004-.023.024-.004.007-.004.004-.008.004-.039.04-.004.007-.004.004-.007.004-.149.148v.004l-.012.012h-.004l-.042.043v.004l-.008.008h-.004l-.031.03v.005l-.008.008h-.004l-.024.023v.004l-.007.008h-.004l-.024.023v.004l-.008.008h-.004l-.015.016v.003l-.008.008h-.004l-.02.02v.004l-.007.007h-.004l-.016.016v.004l-.008.008h-.003l-.016.015v.004l-.012.012h-.004l-.015.016v.004l-.008.007h-.004l-.016.016v.004l-.011.012h-.004l-.02.02v.003l-.012.012h-.003l-.02.02v.003l-.016.016h-.004l-.019.02v.003l-.02.02h-.003l-.028.027v.004l-.039.04h-.004l-.105.105-.004.007-.04.04-.007.003-.016.016-.004.008-.02.02-.007.003-.012.012-.004.008-.015.015-.008.004-.004.004-.004.008-.012.012-.007.004-.008.007-.004.008-.008.008-.008.004-.004.004-.003.008-.008.008-.008.003-.004.004-.004.008-.008.008-.008.004-.003.008-.008.008-.008.003-.004.008-.008.008-.008.004-.004.008-.007.008-.008.004-.004.007-.004.004-.008.004-.004.008-.007.008-.008.004-.004.007-.004.004-.008.004-.004.008-.004.004-.008.004-.003.008-.016.015-.008.004-.004.008-.004.004-.007.004-.004.008-.016.015-.008.004-.004.008-.027.027-.008.004-.004.008-.008.004-.004.008-.07.07-.008.004-.004.008-.007.004-.004.008-.032.03-.007.005-.004.008-.04.039-.007.004-.004.007-.008.008-.008.004-.004.008-.082.082-.007.004c-2.286 2.297-4.118 3.414-6.57 4.152-5.454 1.64-11.489 1.895-16.79-.176h-.008c-3.714-1.39-6.757-4.449-8.191-8.152l-.004-.008c-1.164-2.879-1.348-6.054-1.34-9.23q.008-15.364.004-30.723v-.008c-.02-1.969-.219-4.258-1.574-6.035-1.516-2.031-4.023-3.059-6.45-3.101-1.308-.02-2.616-.012-3.917-.004q-.23-.001-.453.004a134 134 0 0 1-4.344-.028m0 0"/>
  <g clip-path="url(#b)">
    <path transform="matrix(2.34531 0 0 2.35 38.573 152.318)" fill="none" d="m26.158 1.138-.256-.007v.256l-.002 8.1q0 4.05-.003 8.1v.007c.07 2.608.77 5.316 2.491 7.38 2.404 2.916 6.333 4.003 9.935 3.917h.005c2.702-.118 5.755-.644 7.907-2.14l.008-.006c.528-.404 1.15-.931 1.64-1.555.49-.621.867-1.363.867-2.19v-.604l-.427.427-.003.004-.003.001-.002.004-.007.006-.003.002-.002.003-.003.004-.003.001-.002.004-.028.028-.004.002-.001.003-.027.026-.003.002-.002.003-.04.04-.003.002-.002.003-.128.128-.002.004-.003.001-.008.009-.002.003-.003.002-.01.01-.002.003-.002.002-.003.001-.017.017-.001.003-.002.002-.003.002-.064.063v.001l-.005.005h-.001l-.019.019v.001l-.003.004h-.002l-.013.013v.002l-.003.003h-.002l-.01.01v.002l-.003.003h-.002l-.01.01v.001l-.003.004h-.002l-.007.006v.002l-.003.003h-.002l-.008.009v.001l-.003.004h-.002l-.007.006v.002l-.003.003h-.002l-.006.007v.002l-.005.005h-.002l-.007.006v.002l-.003.003h-.002l-.006.007v.002l-.005.005h-.002l-.008.008v.002l-.005.005h-.002l-.008.008v.002l-.007.006h-.002l-.008.009v.001l-.008.008h-.002l-.011.012v.002l-.017.016h-.002l-.045.045-.001.004-.017.016-.003.002-.007.007-.002.003-.008.008-.003.002-.005.005-.002.003-.007.007-.003.001-.002.002-.001.003-.005.005-.004.002-.003.003-.002.004-.003.003-.003.002-.002.001-.002.004-.003.003-.003.002-.002.001-.002.004-.003.003-.003.002-.002.003-.003.003-.004.002-.001.003-.004.004-.003.001-.002.004-.003.003-.003.002-.002.003-.002.002-.003.001-.002.004-.003.003-.003.002-.002.003-.002.002-.003.001-.002.004-.001.001-.004.002-.001.003-.007.007-.003.002-.002.003-.002.001-.003.002-.002.003-.006.007-.004.002-.001.003-.012.012-.003.001-.002.004-.003.001-.002.004-.03.03-.003.001-.002.004-.003.001-.002.004-.013.013-.004.002-.001.003-.017.017-.003.001-.002.004-.003.003-.004.001-.001.004-.035.035-.004.001c-.974.978-1.755 1.453-2.801 1.767-2.325.698-4.898.807-7.159-.074h-.003c-1.584-.592-2.881-1.894-3.493-3.47l-.001-.003c-.497-1.225-.575-2.576-.572-3.928q.004-6.537.002-13.073v-.004c-.008-.837-.093-1.811-.671-2.568-.646-.864-1.716-1.301-2.75-1.32a80 80 0 0 0-1.67-.001q-.098 0-.194.002a57 57 0 0 1-1.852-.012Zm0 0" stroke="#11221c" stroke-width=".5" stroke-miterlimit="5.711"/>
  </g>
  <path fill="#11221c" d="m167.563 155.027-.606-.02v.606c-.031 9.434-.027 18.883-.027 28.332.004 8.72.004 17.438-.02 26.145-.023 2.113.207 4.594 1.785 6.418 1.516 1.879 3.914 2.719 6.18 2.754h.004c2.95.035 5.902.011 8.848-.024l.578-.008v-.574c.03-4.39.015-8.77 0-13.144-.02-5.024-.04-10.043.011-15.07 2.555 3.386 5.09 6.788 7.625 10.195l.309.414c2.98 4 5.96 8 8.98 11.972l.004.008c3.13 4.012 8.192 6.383 13.262 6.258 1.574-.016 3.149-.016 4.73-.016h.11c1.621 0 3.242 0 4.863-.015l1.156-.012-.695-.93c-4.316-5.773-8.617-11.566-12.918-17.359-5.617-7.566-11.234-15.133-16.894-22.66l-.325-.43-.457.285c-1.5.942-2.972 1.895-4.441 2.844a300 300 0 0 1-5.328 3.39c-.012-2.894-.004-5.796.008-8.702.011-4.211.027-8.426-.028-12.621.024-3.583-2.472-7.247-6.234-7.813h-.004c-1.766-.254-3.539-.281-5.289-.258-.488.004-.977.016-1.465.024-1.25.027-2.484.05-3.722.011m0 0"/>
  <g clip-path="url(#c)">
    <path transform="matrix(2.34531 0 0 2.35 38.573 152.318)" fill="none" d="m54.999 1.153-.258-.008v.257c-.013 4.014-.012 8.035-.012 12.056q.005 5.566-.008 11.126c-.01.899.088 1.954.761 2.73.646.8 1.669 1.158 2.635 1.173h.002c1.257.015 2.516.005 3.772-.01l.247-.004v-.244c.013-1.868.006-3.732 0-5.593-.009-2.138-.017-4.274.005-6.413 1.089 1.44 2.17 2.889 3.25 4.338l.132.176a667 667 0 0 0 3.83 5.095l.001.003c1.334 1.707 3.493 2.716 5.655 2.663q1.005-.008 2.017-.006h.046q1.037.002 2.074-.007l.493-.005-.297-.396c-1.84-2.456-3.674-4.922-5.508-7.387-2.395-3.22-4.79-6.44-7.203-9.642l-.138-.183-.195.121c-.64.4-1.268.806-1.894 1.21-.754.487-1.506.971-2.272 1.443-.005-1.232-.001-2.467.004-3.703.005-1.792.011-3.586-.012-5.37.01-1.525-1.054-3.084-2.658-3.325h-.002c-.753-.108-1.509-.12-2.255-.11l-.625.01c-.533.011-1.059.021-1.587.005Zm0 0" stroke="#11221c" stroke-width=".5"/>
  </g>
  <path fill="#11221c" d="m230.89 155-.585-.004v.59c.027 12.668.023 25.336.02 38.008q-.006 7.002-.005 14.004v.004c.004.418 0 .859-.007 1.308-.012.828-.024 1.692.03 2.516.083 1.3.321 2.629.993 3.867 1.289 2.633 4.234 4.031 6.996 3.984 5.828-.007 11.66-.004 17.488 0 7.457.004 14.914.004 22.368-.015h.578l.004-.578q.018-1.324.007-2.641l-.004-.594-.593.008c-9.43.164-18.868.086-28.309.012l-2.18-.02c.024-4.46.02-8.949.016-13.433-.004-4.223-.008-8.446.012-12.645a2550 2550 0 0 1 20.453 0l.55.004.036-.55c.058-.88.097-1.762.133-2.637l.023-.61-.61-.004c-2.671-.008-5.34.004-8.003.02-4.207.02-8.406.043-12.61-.031.016-4.715.016-9.438.012-14.157-.004-4.148-.004-8.297.004-12.437q1.57-.005 3.133-.004c9.086-.012 18.172-.024 27.258.015l.554.004.036-.554c.054-.942.09-1.883.117-2.817l.02-.605h-.606c-3.824 0-7.653.004-11.477.008-11.953.007-23.898.02-35.851-.016m0 0"/>
  <g clip-path="url(#d)">
    <path transform="matrix(2.34531 0 0 2.35 38.573 152.318)" fill="none" d="m82.001 1.141-.25-.001v.25c.012 5.391.01 10.782.008 16.174l-.001 5.96q.002.27-.004.558c-.004.352-.01.72.014 1.07.035.554.136 1.119.423 1.646.55 1.12 1.805 1.715 2.983 1.695q3.728-.003 7.457 0 4.77.004 9.537-.006h.246l.002-.246q.007-.564.003-1.124l-.002-.253-.253.004c-4.02.07-8.044.036-12.07.005l-.93-.009c.01-1.898.009-3.808.007-5.716-.001-1.797-.003-3.594.005-5.38 2.907-.014 5.813-.01 8.721 0h.235l.015-.234q.036-.562.057-1.122l.01-.259-.26-.001q-1.71-.004-3.413.008c-1.794.008-3.584.018-5.376-.013q.008-3.011.005-6.024-.003-2.65.001-5.293l1.336-.002c3.874-.005 7.748-.01 11.622.007l.237.002.015-.236q.033-.602.05-1.199l.008-.257h-.258q-2.446 0-4.894.003c-5.096.003-10.19.008-15.286-.007Zm0 0" stroke="#11221c" stroke-width=".5"/>
  </g>
  <path fill="#11221c" d="M303.578 215.457c.012-8.703.012-17.406.012-26.113 6.851.015 13.707.027 20.562-.004h.582v-.586c0-.883 0-1.754.004-2.633l.004-.59h-.594l-5.5.024c-5.027.027-10.05.05-15.074-.012.004-2.95.004-5.895.004-8.844 0-5.918 0-11.836.043-17.754q3.815.007 7.629.008c7.586.012 15.168.024 22.758-.027l.574-.004.008-.574.023-1.332v-.008l.016-1.32.012-.59-.59-.004c-11.23-.098-22.461-.078-33.684-.059-4.523.004-9.043.012-13.562.012h-.582l-.004.586c-.074 10.18-.063 20.367-.051 30.554.008 7.868.02 15.731-.012 23.586-.074 2.461.371 5.23 2.192 7.223h-.004l.02.02c1.843 1.863 4.554 2.351 6.921 2.277 5.367-.04 10.75-.027 16.133-.012 7.559.02 15.125.035 22.672-.094l.61-.011-.032-.606q-.034-.636-.063-1.273c-.015-.422-.039-.848-.058-1.274l-.027-.562-.567.008c-10.121.133-20.254.136-30.375-.012m0 0"/>
  <g clip-path="url(#e)">
    <path transform="matrix(2.34531 0 0 2.35 38.573 152.318)" fill="none" d="M112.994 26.868q.006-5.555.005-11.112c2.921.006 5.844.011 8.767-.002h.248v-.25l.002-1.12.002-.25h-.254l-2.345.01c-2.143.01-4.285.02-6.427-.006l.002-3.763c0-2.518 0-5.037.018-7.555q1.626.003 3.253.003c3.234.005 6.467.01 9.703-.011l.245-.002.004-.244.01-.567v-.003l.006-.562.005-.251-.251-.002c-4.789-.041-9.577-.033-14.362-.025q-2.894.004-5.783.005h-.248l-.002.25a1538 1538 0 0 0-.022 13.001c.004 3.348.009 6.694-.005 10.037-.031 1.047.159 2.226.935 3.074h-.002l.008.008c.786.793 1.942 1 2.952.969 2.288-.017 4.583-.012 6.878-.005 3.223.008 6.45.015 9.667-.04l.26-.005-.013-.258-.027-.541q-.01-.27-.025-.542l-.011-.24-.242.004a470 470 0 0 1-12.951-.005Zm0 0" stroke="#11221c" stroke-width=".5"/>
  </g>
</svg>
