<!DOCTYPE svg PUBLIC "-//W3C//DTD SVG 1.1//EN" "http://www.w3.org/Graphics/SVG/1.1/DTD/svg11.dtd">
<!-- Uploaded to: SVG Repo, www.svgrepo.com, Transformed by: SVG Repo Mixer Tools -->
<svg width="800px" height="800px" viewBox="0 0 24 24" fill="none" xmlns="http://www.w3.org/2000/svg" stroke="#11221C">
<g id="SVGRepo_bgCarrier" stroke-width="0"/>
<g id="SVGRepo_tracerCarrier" stroke-linecap="round" stroke-linejoin="round"/>
<g id="SVGRepo_iconCarrier"> <path d="M15.0001 10L11.0001 14L9 12M13.0693 20.5995C16.8623 18.8285 19.1654 13.8643 19.8119 9.4623C20.0321 7.96329 19.144 6.572 17.7888 5.89443L13.7888 3.89443C12.6627 3.33137 11.3372 3.33137 10.2111 3.89443L6.21113 5.89443C4.85599 6.572 3.96786 7.9633 4.18803 9.4623C4.83459 13.8643 7.13769 18.8285 10.9306 20.5995C11.6075 20.9156 12.3925 20.9156 13.0693 20.5995Z" stroke="#&lt;svg xmlns=" http:="" www.w3.org="" 2000="" svg"="" class="icon icon-tabler icon-tabler-file-upload" width="44" height="44" viewBox="0 0 24 24" stroke-width="1.5" fill="none" stroke-linecap="round" stroke-linejoin="round">   <path stroke="none" d="M0 0h24v24H0z" fill="none"/>   <path d="M14 3v4a1 1 0 0 0 1 1h4"/>   <path d="M17 21h-10a2 2 0 0 1 -2 -2v-14a2 2 0 0 1 2 -2h7l5 5v11a2 2 0 0 1 -2 2z"/>   <path d="M12 11v6"/>   <path d="M9.5 13.5l2.5 -2.5l2.5 2.5"/> " stroke-width="1.5" stroke-linecap="round" stroke-linejoin="round"&gt;</path> </g>
</svg>