<svg xmlns="http://www.w3.org/2000/svg" width="300" viewBox="0 0 375 375" height="250" version="1.0">
  <defs>
    <clipPath id="a">
      <path d="M0 134.727h54v87.75H0Zm0 0"/>
    </clipPath>
    <clipPath id="b">
      <path d="M65 134.727h92v87.75H65Zm0 0"/>
    </clipPath>
    <clipPath id="c">
      <path d="M153 134.727h91v87.75h-91Zm0 0"/>
    </clipPath>
    <clipPath id="d">
      <path d="M232 134.727h78v87.75h-78Zm0 0"/>
    </clipPath>
    <clipPath id="e">
      <path d="M302 134.727h73v87.75h-73Zm0 0"/>
    </clipPath>
  </defs>
  <path fill="#60c9ae" d="M58.91 138.105c4.063-1.335 8.766.63 10.75 4.383 2.285 3.766.973 8.969-2.508 11.535-2.867 2.098-7 2.45-10.066.563-3.664-2.027-5.441-6.828-4.012-10.746.844-2.735 3.13-4.875 5.836-5.735m76.977-.007c5.758-1.868 12.265 2.375 13.035 8.312.64 4.63-2.332 9.61-6.902 10.926-4.887 1.781-10.762-1.004-12.555-5.856-2.23-5.226.887-11.89 6.422-13.382m71.586 1.152c3.699-.941 8.101-.086 10.515 3.059 4.102 4.64 2.64 12.855-3.047 15.55-5.957 3.395-14.359-1.164-14.734-7.968-.707-4.723 2.633-9.559 7.266-10.641m0 0"/>
  <path fill="#f2fffc" d="M4.293 138.07h-.73l-.004.727q-.007.853-.008 1.707v.008l-.012 1.703-.004.726.73.008c5.56.067 11.122.051 16.68.035q1.296-.006 2.598-.007c.031 12.218.023 24.437.02 36.66-.004 9.648-.008 19.297.003 28.945-.07 4.836 4.047 9.227 8.907 9.43h.004c2.316.086 4.675.07 7.015.05 1.649-.011 3.29-.023 4.899.004l.742.012.004-.742c.09-17.649.074-35.3.062-52.95-.008-8.527-.015-17.058-.008-25.581v-.735h-.738a8534 8534 0 0 1-40.16 0m0 0"/>
  <g clip-path="url(#a)">
    <path transform="matrix(2.93164 0 0 2.925 1.34 134.727)" fill="none" d="M1.007 1.143h-.25v.248q-.003.292-.003.584v.003L.75 2.56l-.001.248.249.003c1.896.023 3.793.017 5.69.012l.885-.003c.01 4.178.008 8.355.007 12.534q-.003 4.948.001 9.895c-.024 1.654 1.38 3.155 3.038 3.224h.002c.79.03 1.595.024 2.393.018.562-.004 1.122-.008 1.67.001l.254.004.001-.254c.03-6.033.025-12.068.021-18.102a4785 4785 0 0 1-.002-8.746v-.251h-.252q-6.85.016-13.699 0Zm0 0" stroke="#f2fffc" stroke-width=".5"/>
  </g>
  <path fill="#f2fffc" d="m78.027 138.055-.75-.02v.75q-.009 11.849-.007 23.692.002 11.848-.008 23.691v.02c.203 7.628 2.254 15.55 7.304 21.59 7.047 8.527 18.567 11.706 29.125 11.456h.016c7.918-.347 16.867-1.886 23.176-6.261l.027-.02c1.547-1.18 3.371-2.719 4.809-4.543 1.437-1.82 2.539-3.988 2.539-6.406v-1.766l-1.25 1.246-.059.059-.012.008-.007.012-.102.101-.012.008-.039.039-.004.008-.078.078-.007.004-.004.008-.04.039-.007.004-.004.007-.024.024-.007.004-.004.008-.024.023-.008.004-.004.008-.015.015-.008.004-.004.008-.008.008-.007.004-.004.008-.016.015-.008.004-.004.008-.008.008-.007.004-.004.007-.008.008-.008.004-.004.008-.008.008-.007.004-.004.007-.02.02-.008.004-.004.008-.02.02-.007.003-.004.008-.008.004-.004.008-.02.02-.007.003-.004.008-.008.004-.004.008-.007.004-.004.007-.008.004-.004.008-.008.004-.004.008-.007.004-.004.008-.008.003-.004.008-.008.004-.004.008-.015.016-.008.004-.004.007-.008.004-.004.008-.008.004-.004.008-.004.004-.007.004-.004.007-.008.004-.004.008-.004.004-.008.004-.004.008-.007.004-.004.007-.004.004-.008.004-.004.008-.004.004-.008.004-.004.008-.003.004-.008.004-.004.007-.008.004-.004.004-.004.008-.004.004-.007.004-.004.008-.004.004-.008.003-.004.008-.004.004-.008.004-.004.004-.004.008-.003.004-.008.004-.004.007-.004.004-.008.004-.004.004-.004.008-.004.004-.007.004-.004.004-.004.007-.004.004-.008.004-.004.004-.004.008-.004.004-.007.004-.004.004-.004.007-.004.004-.008.004-.008.008-.004.008-.004.004-.007.004-.008.008-.004.007-.004.004-.008.004-.008.008-.004.008-.004.004-.007.004-.012.011-.004.008-.004.004-.008.004-.011.012-.004.007-.004.004-.008.004-.016.016-.004.008-.007.004-.02.02-.004.007-.004.004-.008.004-.015.015-.004.008-.008.008-.008.004-.02.02-.003.007-.004.004-.008.004-.023.024-.004.007-.008.008-.008.004-.023.024-.004.007-.004.004-.008.004-.027.028-.004.007-.008.008-.008.004-.027.027-.004.008-.008.004-.031.031-.004.008-.008.004-.027.027-.004.008-.008.004-.027.027-.004.008-.008.004-.207.207-.008.004-.004.008-.195.195-.008.004-.004.008-.004.004-.007.004-.004.008-.016.015-.008.004-.004.008-.015.016-.008.003-.004.008-.008.004-.004.008-.027.027-.008.004-.004.008-.008.004-.004.008-.007.004-.004.007-.008.004-.004.008-.008.004-.004.008-.007.004-.004.008-.043.043-.008.004-.004.007-.02.02-.007.004-.004.008-.008.004-.004.007-.008.008-.008.004-.004.008-.007.008-.008.004-.004.007-.008.008-.008.004-.004.008-.007.008-.008.004-.004.007-.008.008-.008.004-.004.008-.007.008-.008.004-.008.007-.004.008-.008.008-.008.004-.007.008-.004.008-.008.007-.008.004-.008.008-.004.008-.015.016-.008.004-.008.007-.004.008-.016.016-.007.004-.024.023-.004.008-.015.016-.008.003-.04.04-.003.007-.11.11-.011.008-.047.046-.008.012-.023.024-.012.007-.023.024-.008.012-.012.007-.008.008c-2.86 2.856-5.144 4.246-8.215 5.164-6.816 2.043-14.355 2.36-20.984-.215l-.008-.004c-4.644-1.73-8.453-5.535-10.242-10.144l-.004-.012c-1.457-3.582-1.683-7.535-1.676-11.488q.013-19.124.008-38.242v-.008c-.027-2.453-.273-5.3-1.973-7.508-1.894-2.531-5.027-3.808-8.058-3.863a228 228 0 0 0-4.899-.004h-.566c-1.816.012-3.625.016-5.43-.031m0 0"/>
  <g clip-path="url(#b)">
    <path transform="matrix(2.93164 0 0 2.925 1.34 134.727)" fill="none" d="m26.158 1.138-.256-.007v.256l-.002 8.1q0 4.05-.003 8.1v.006c.07 2.608.769 5.317 2.492 7.381 2.403 2.916 6.333 4.003 9.934 3.917h.006c2.7-.119 5.753-.645 7.905-2.14l.01-.007c.527-.403 1.15-.93 1.64-1.553s.866-1.364.866-2.19v-.604l-.427.426-.02.02-.004.003-.002.004-.035.034-.004.003-.013.013-.001.003-.027.027-.003.001-.001.003-.013.013-.003.001-.001.003-.008.008-.003.001-.001.003-.008.008-.003.002-.001.002-.006.006h-.002l-.002.004-.002.002-.003.002-.001.002-.006.006h-.002l-.002.004-.002.002-.003.002-.001.002-.003.003-.003.001-.001.003-.003.003h-.002l-.002.004-.006.006-.003.002-.001.002-.007.007-.003.001-.001.003-.003.001-.001.003-.007.007-.002.001-.002.003-.002.001-.002.003-.002.001-.002.003-.002.001-.002.003-.002.001-.002.003-.002.001-.002.003-.002.001-.002.003-.002.001-.002.003-.005.005-.003.001-.001.003-.003.001-.001.003-.003.001-.001.003-.001.001-.003.002-.001.002-.003.002-.001.002-.002.002-.002.001-.002.003-.002.001-.002.003-.001.001-.003.001-.001.003-.001.001-.003.002-.001.002-.002.002-.002.001-.002.003-.002.001-.002.001-.001.003-.001.001-.003.002-.001.002-.002.002-.002.001-.002.003-.001.001-.003.001-.001.002-.001.002-.002.002-.002.001-.002.003-.001.001-.003.001-.001.002-.001.003h-.002l-.002.002-.002.002-.001.002-.001.002h-.003l-.001.002-.002.003-.001.001-.003.002h-.001l-.001.004h-.002l-.002.002-.003.003-.001.003h-.002l-.002.002-.003.003-.001.003h-.002l-.002.002-.003.003-.001.003h-.002l-.002.002-.004.004-.002.003v.001l-.004.002-.004.004v.002l-.002.002h-.003l-.005.006-.002.003-.002.001-.007.007-.001.003-.002.001-.002.001-.006.006v.002l-.004.003-.002.001-.007.007-.001.003-.002.001-.002.001-.008.008-.002.003-.002.003-.003.001-.008.008-.001.003-.002.001-.002.001-.01.01v.002l-.004.003-.002.001-.01.01v.002l-.004.002-.01.01-.002.003-.002.001-.01.01v.002l-.004.002-.009.01-.001.002-.003.001-.07.071-.003.001-.001.003-.067.067-.003.001-.001.003-.001.001-.003.001-.001.003-.006.005-.002.002-.002.002-.005.006-.003.001-.001.003-.003.001-.001.003-.01.01h-.002l-.001.003-.003.001-.001.003-.003.001-.001.003-.003.001-.001.003-.003.001-.001.003-.003.001-.001.003-.015.015-.003.001-.001.003-.007.007h-.002l-.002.004h-.002l-.002.004-.002.002-.003.002-.001.002-.003.003-.003.001-.001.003-.003.003h-.002l-.002.004-.002.002-.003.002-.001.002-.003.003-.003.001-.001.003-.003.003h-.002l-.003.004-.001.002-.003.003-.003.001-.002.003-.002.003-.002.002-.003.002-.003.002-.001.003-.005.005-.003.002-.003.002-.001.003-.005.005-.003.002-.008.008-.001.002-.006.006-.002.001-.014.013v.003l-.038.037-.004.003-.016.016-.003.004-.008.008-.004.003-.008.008-.003.004-.004.003-.002.002c-.976.976-1.755 1.452-2.802 1.766-2.325.698-4.897.806-7.158-.074l-.003-.001c-1.584-.592-2.883-1.892-3.494-3.468v-.004c-.498-1.225-.575-2.576-.573-3.928q.004-6.539.003-13.074v-.003c-.01-.839-.093-1.812-.673-2.567-.646-.865-1.715-1.302-2.749-1.32a78 78 0 0 0-1.67-.002h-.194a57 57 0 0 1-1.852-.01Zm0 0" stroke="#f2fffc" stroke-width=".5" stroke-miterlimit="5.711"/>
  </g>
  <path fill="#f2fffc" d="m162.578 138.098-.754-.024-.004.754a9418 9418 0 0 0-.03 35.266c0 10.851.003 21.703-.028 32.539-.032 2.633.261 5.719 2.234 7.992 1.89 2.34 4.89 3.383 7.723 3.43h.004c3.691.039 7.379.011 11.062-.032l.719-.007.004-.72c.035-5.468.015-10.917-.004-16.362-.024-6.25-.047-12.496.016-18.754 3.195 4.215 6.363 8.449 9.53 12.687l.387.516a1902 1902 0 0 0 11.227 14.902l.004.008c3.91 4.992 10.238 7.945 16.574 7.789 1.969-.016 3.942-.016 5.914-.016h.14c2.024 0 4.052 0 6.075-.02l1.45-.015-.868-1.156c-5.402-7.184-10.777-14.398-16.152-21.61-7.02-9.413-14.04-18.835-21.117-28.202l-.407-.536-.566.356a423 423 0 0 0-5.555 3.539 397 397 0 0 1-6.66 4.223c-.016-3.602-.004-7.22.008-10.836.02-5.239.035-10.485-.035-15.707.035-4.457-3.086-9.02-7.79-9.727h-.003c-2.211-.316-4.426-.348-6.613-.32-.614.007-1.223.02-1.829.03-1.566.032-3.109.063-4.656.013m0 0"/>
  <g clip-path="url(#c)">
    <path transform="matrix(2.93164 0 0 2.925 1.34 134.727)" fill="none" d="m54.999 1.152-.257-.008-.001.258c-.014 4.014-.012 8.036-.011 12.057 0 3.71.001 7.42-.01 11.124-.01.9.09 1.955.763 2.732.645.8 1.668 1.157 2.634 1.173h.001c1.26.013 2.517.004 3.774-.01l.245-.003.001-.246c.012-1.87.006-3.733-.001-5.594-.008-2.137-.016-4.273.005-6.412 1.09 1.441 2.17 2.889 3.251 4.338l.132.176a643 643 0 0 0 3.83 5.095l.001.002c1.334 1.707 3.492 2.717 5.654 2.663q1.007-.006 2.017-.005h.048q1.036.002 2.072-.007l.494-.005-.296-.395c-1.842-2.456-3.676-4.923-5.51-7.388-2.394-3.219-4.788-6.44-7.202-9.642l-.139-.183-.193.121q-.958.602-1.895 1.21c-.754.486-1.506.971-2.272 1.444-.005-1.231-.001-2.468.003-3.705.007-1.79.012-3.584-.012-5.37.012-1.523-1.053-3.083-2.657-3.325h-.001c-.754-.108-1.51-.119-2.256-.11l-.624.011c-.534.01-1.06.022-1.588.004Zm0 0" stroke="#f2fffc" stroke-width=".5"/>
  </g>
  <path fill="#f2fffc" d="M241.742 138.063h-.738v.734c.035 15.766.031 31.535.023 47.305l-.004 17.43v.007c.008.52 0 1.066-.007 1.629-.012 1.027-.028 2.102.039 3.129.101 1.621.402 3.273 1.238 4.812 1.613 3.278 5.293 5.02 8.746 4.961 7.285-.007 14.574-.004 21.863 0 9.32.004 18.641.008 27.957-.015l.723-.004.004-.723c.012-1.094.02-2.191.012-3.285l-.008-.738-.738.011c-11.79.2-23.586.106-35.387.012q-1.364-.013-2.727-.02c.028-5.554.024-11.14.02-16.722-.004-5.258-.008-10.516.012-15.738 8.523-.04 17.046-.032 25.57 0l.687.004.047-.688c.074-1.094.121-2.191.164-3.281l.028-.758-.758-.004c-3.344-.012-6.676.004-10.008.024-5.258.027-10.504.054-15.762-.04.024-5.867.02-11.746.016-17.62-.004-5.165-.008-10.329.008-15.481l3.914-.004c11.355-.016 22.715-.031 34.074.02l.691.003.04-.691c.07-1.168.117-2.34.152-3.504l.023-.754h-.758l-14.343.012c-14.942.012-29.88.023-44.813-.024m0 0"/>
  <g clip-path="url(#d)">
    <path transform="matrix(2.93164 0 0 2.925 1.34 134.727)" fill="none" d="M82.002 1.14h-.252v.251c.012 5.39.011 10.782.008 16.173v5.961q.002.268-.004.557c-.004.352-.009.719.014 1.07.034.554.137 1.12.422 1.645.55 1.12 1.806 1.716 2.984 1.696q3.727-.002 7.457 0c3.18.002 6.359.003 9.537-.005l.246-.001.001-.247q.007-.562.004-1.124l-.002-.252-.252.004c-4.021.068-8.045.036-12.07.004l-.93-.007c.009-1.899.007-3.808.006-5.717-.001-1.797-.003-3.595.004-5.38 2.907-.014 5.815-.011 8.722 0l.235.001.016-.235c.025-.374.04-.75.056-1.122l.009-.259-.259-.001q-1.71-.004-3.413.008c-1.794.01-3.583.018-5.377-.014.008-2.005.007-4.015.006-6.024q-.004-2.648.002-5.292l1.335-.002c3.874-.005 7.748-.01 11.623.007l.236.001.013-.236q.035-.6.052-1.198l.008-.258h-.258l-4.893.004c-5.096.004-10.192.008-15.286-.008Zm0 0" stroke="#f2fffc" stroke-width=".5"/>
  </g>
  <path fill="#f2fffc" d="M332.594 213.316c.02-10.832.02-21.668.02-32.504 8.562.02 17.132.036 25.702-.003l.727-.004v-.727c0-1.098 0-2.183.004-3.277l.004-.735-.738.004c-2.293.004-4.59.016-6.88.028-6.285.03-12.562.062-18.84-.016q.006-5.507.005-11.008c-.004-7.367-.004-14.73.054-22.097l9.536.011c9.48.012 18.96.024 28.449-.039l.718-.004.008-.715c.008-.55.02-1.105.028-1.656v-.012l.023-1.64.012-.734-.738-.008c-14.036-.118-28.075-.094-42.106-.075q-8.477.019-16.95.02h-.726l-.008.727c-.093 12.671-.078 25.355-.062 38.03.012 9.79.023 19.579-.016 29.36-.093 3.063.465 6.508 2.739 8.988l-.004.004.023.02c2.309 2.32 5.692 2.926 8.652 2.84 6.711-.055 13.438-.035 20.165-.02 9.449.024 18.906.047 28.343-.117l.762-.016-.04-.754q-.044-.79-.077-1.582-.035-.79-.074-1.582l-.036-.703-.707.008a1366 1366 0 0 1-37.972-.012m0 0"/>
  <g clip-path="url(#e)">
    <path transform="matrix(2.93164 0 0 2.925 1.34 134.727)" fill="none" d="M112.992 26.868q.009-5.555.007-11.112c2.92.006 5.844.012 8.767-.002l.248-.001v-.248q0-.562.002-1.12l.001-.252-.252.001q-1.174.004-2.346.01c-2.144.01-4.285.021-6.427-.006q.003-1.882.002-3.763a892 892 0 0 1 .018-7.555l3.253.004c3.234.004 6.468.008 9.704-.013l.245-.001.003-.245.01-.566v-.004l.007-.56.004-.252-.252-.003c-4.787-.04-9.576-.032-14.362-.025q-2.892.006-5.782.007h-.247l-.003.248c-.032 4.332-.027 8.669-.021 13.002.004 3.347.008 6.694-.006 10.038-.032 1.047.159 2.224.934 3.072l-.001.002.008.006c.787.794 1.941 1 2.951.971 2.29-.018 4.584-.012 6.878-.006 3.224.008 6.45.016 9.669-.04l.26-.006-.014-.257q-.014-.27-.026-.541-.011-.27-.026-.541l-.012-.24-.241.002q-6.476.089-12.953-.004Zm0 0" stroke="#f2fffc" stroke-width=".5"/>
  </g>
</svg>
