<svg xmlns="http://www.w3.org/2000/svg" width="100" height="50" viewBox="0 0 0" stroke-width="1.5" stroke="#F2FFFC" fill="none" stroke-linecap="round" stroke-linejoin="round"><path d="M15 10h28.8v28.8H15z" stroke="none"/><path d="M31.8 13.6v4.8a1.2 1.2 0 0 0 1.2 1.2h4.8" stroke-width="1.8"/><path d="M35.4 35.2h-12a2.4 2.4 0 0 1-2.4-2.4V16a2.4 2.4 0 0 1 2.4-2.4h8.4l6 6v13.2a2.4 2.4 0 0 1-2.4 2.4m-9.6-14.4H27m-1.2 4.8H33m-7.2 4.8H33" stroke-width="1.8"/><path d="M33 9h28.8v28.8H33z" stroke="none"/><path d="M46.2 23.4h12m-3.6-3.6 3.6 3.6-3.6 3.6" stroke-width="1.8"/><path d="M60 10h28.8v28.8H60z" stroke="none"/><path d="M76.8 13.6v4.8a1.2 1.2 0 0 0 1.2 1.2h4.8" stroke-width="1.8"/><path d="M72 35.2h-3.6a2.4 2.4 0 0 1-2.4-2.4V16a2.4 2.4 0 0 1 2.4-2.4h8.4l6 6v4.2m-12-3H72m-1.2 4.8h3m-3 4.8H72" stroke-width="1.8"/><path d="M76.8 35.2v-4.8a2.4 2.4 0 1 1 4.8 0v4.8m-4.8-2.4h4.8m3.6-4.8v7.2" stroke-width="1.8"/></svg>