<svg xmlns="http://www.w3.org/2000/svg" width="100" height="50" viewBox="0 0 120 60" stroke-width="1.5" stroke="#F2FFFC" fill="none" stroke-linecap="round" stroke-linejoin="round"><path d="M15 5h48v48H15z" stroke="none"/><path d="M23 29a4 4 0 0 1 4-4h8a4 4 0 0 1 4 4v14a4 4 0 0 1-4 4h-8a4 4 0 0 1-4-4zm4-4v-8a2 2 0 0 1 2-2h4a2 2 0 0 1 2 2v8m10-6h.02M51 23h.02M51 15h.02M57 11h.02M57 19h.02M57 27h.02M35 19h2" stroke-width="3"/><path d="M55 5h48v48H55z" stroke="none"/><path d="M83 11v8a2 2 0 0 0 2 2h8" stroke-width="3"/><path d="M89 47H69a4 4 0 0 1-4-4V15a4 4 0 0 1 4-4h14l10 10v22a4 4 0 0 1-4 4M73 23h2m-2 8h12m-12 8h12" stroke-width="3"/></svg>