<svg fill="#11221C" width="800" height="800" viewBox="0 0 256 256" xmlns="http://www.w3.org/2000/svg" stroke="#11221C"><g stroke-width="0"/><g stroke-linecap="round" stroke-linejoin="round"/><path d="m213.657 66.343-40-40A8 8 0 0 0 168 24H88a16.02 16.02 0 0 0-16 16v16H56a16.02 16.02 0 0 0-16 16v144a16.02 16.02 0 0 0 16 16h112a16.02 16.02 0 0 0 16-16v-16h16a16.02 16.02 0 0 0 16-16V72a8 8 0 0 0-2.343-5.657ZM136 192H88a8 8 0 0 1 0-16h48a8 8 0 0 1 0 16Zm0-32H88a8 8 0 0 1 0-16h48a8 8 0 0 1 0 16Zm64 24h-16v-80a8 8 0 0 0-2.343-5.657l-40-40A8 8 0 0 0 136 56H88V40h76.687L200 75.314Z"/></svg>