<svg viewBox="0 0 600 600" width="800" height="800" xmlns="http://www.w3.org/2000/svg"><g stroke-width="0"/><g stroke-linecap="round" stroke-linejoin="round"/><g style="stroke-width:1.05103"><path style="color:#11221c;fill:#11221c;stroke-linecap:round;stroke-linejoin:round;-inkscape-stroke:none;paint-order:stroke fill markers" d="M-900-310.795c-20.434 0-40.008 4.623-52.904 19.276s-13.31 30.276-14.056 39.782c-.747 9.506-1.368 15.423-2.807 19.088-1.44 3.665-2.627 6.465-11.632 11.664-9.005 5.2-12.021 4.825-15.915 4.239s-9.326-3.005-17.932-7.111c-8.605-4.107-22.346-11.561-41.484-7.72s-32.929 18.482-43.146 36.178c-10.217 17.697-15.998 36.96-9.756 55.455s19.566 26.668 27.425 32.067 12.67 8.893 15.125 11.973 4.287 5.506 4.287 15.904-1.833 12.825-4.287 15.904c-2.455 3.08-7.266 6.574-15.125 11.973-7.86 5.399-21.183 13.572-27.425 32.067s-.46 37.758 9.756 55.455 24.008 32.336 43.146 36.177 32.88-3.612 41.484-7.719c8.606-4.106 14.038-6.525 17.932-7.11 3.894-.587 6.91-.962 15.915 4.238 9.005 5.199 10.192 7.999 11.632 11.664s2.06 9.582 2.807 19.088 1.16 25.129 14.056 39.782 32.47 19.276 52.904 19.276 40.008-4.623 52.904-19.276 13.31-30.276 14.056-39.782c.747-9.506 1.368-15.423 2.807-19.088 1.44-3.665 2.627-6.465 11.632-11.664 9.005-5.2 12.021-4.825 15.915-4.239s9.326 3.005 17.932 7.111c8.605 4.107 22.346 11.561 41.484 7.72s32.929-18.482 43.146-36.178c10.217-17.697 15.998-36.96 9.756-55.455s-19.566-26.668-27.425-32.067-12.67-8.893-15.124-11.973-4.288-5.506-4.288-15.904 1.833-12.825 4.288-15.904 7.265-6.574 15.124-11.973 21.184-13.572 27.425-32.067c6.242-18.495.46-37.758-9.756-55.455s-24.008-32.336-43.146-36.177-32.88 3.612-41.484 7.719c-8.606 4.106-14.038 6.525-17.932 7.11-3.894.587-6.91.962-15.915-4.238-9.005-5.199-10.192-7.999-11.632-11.664s-2.06-9.582-2.807-19.088-1.16-25.129-14.056-39.782-32.47-19.276-52.904-19.276m.018 130.78c55.632 0 100.167 44.451 100.167 100.015S-844.35 20.014-899.982 20.014-1000.149-24.436-1000.149-80s44.535-100.014 100.167-100.014" transform="matrix(1.29778 0 0 1.30002 1468.006 404.002)"/><g transform="matrix(1.31411 0 0 1.20806 274.294 263.273)"/><g transform="matrix(1.43638 0 0 1.3274 48.9 3.18)" style="stroke-width:50.6951"/><path style="color:#11221c;fill:#11221c;stroke-width:1.05103;stroke-linejoin:round;-inkscape-stroke:none;paint-order:stroke fill markers" d="M300.61 218.514c-46.04 0-84.059 38.065-84.059 84.097 0 46.033 38.019 84.098 84.058 84.098s84.057-38.065 84.057-84.098c0-46.032-38.017-84.097-84.057-84.097" transform="matrix(.95173 0 0 .95116 13.901 12.169)"/></g></svg>